#N canvas 438 186 696 382 12;
#X obj 439 265 print;
#X floatatom 210 128 5 0 0 0 - - -, f 5;
#X floatatom 330 128 5 0 0 0 - - -, f 5;
#X msg 208 196 close;
#X obj 294 227 pack 1 2 0;
#X msg 197 238 open 7;
#X obj 295 301 comport 7 9600;
#X obj 258 34 notein;
#X connect 1 0 4 0;
#X connect 2 0 4 1;
#X connect 3 0 6 0;
#X connect 4 0 0 0;
#X connect 4 0 6 0;
#X connect 5 0 6 0;
#X connect 7 0 1 0;
#X connect 7 2 2 0;
